# xmcd
#
# Track frame offsets: 
#        150
#        7870
#        15942
#        28540
#        48837
#        67410
#        79087
#        97442
#        112915
#        126127
#        139742
#        157342
#        172402
#        186780
#        205177
#        221330
#        241507
#        260195
#        272925
#        291665
#        307092
#
# Disc length: 4297 seconds
#
# Revision: 1
# Processed by: cddbd v1.5.2PL0 Copyright (c) Steve Scherf et al.
# Submitted via: ExactAudioCopyFreeDBPlugin 1.0
#
DISCID=3f10c715
DTITLE=Trond Granlund - Fra Manglerud Til Manchester
DYEAR=1998
DGENRE=Rock
TTITLE0=Hard headed woman
TTITLE1=Hippy hippy shake
TTITLE2=I'm cryin
TTITLE3=Skjebnens karusell
TTITLE4=Say were not apart
TTITLE5=If love is
TTITLE6=Give me time
TTITLE7=Soho
TTITLE8=Eloise
TTITLE9=Tightrope
TTITLE10=Julia Julia
TTITLE11=Girl
TTITLE12=Lisa
TTITLE13=Coney Island
TTITLE14=Driftin
TTITLE15=Highway
TTITLE16=Soft shoe dancer
TTITLE17=Svarte penger
TTITLE18=Beatiful woman
TTITLE19=Waitin' game
TTITLE20=Faithful
EXTD=
EXTT0=
EXTT1=
EXTT2=
EXTT3=
EXTT4=
EXTT5=
EXTT6=
EXTT7=
EXTT8=
EXTT9=
EXTT10=
EXTT11=
EXTT12=
EXTT13=
EXTT14=
EXTT15=
EXTT16=
EXTT17=
EXTT18=
EXTT19=
EXTT20=
PLAYORDER=
